<?xml version="1.0" encoding="UTF-8"?>
<svg xmlns="http://www.w3.org/2000/svg" id="Layer_1" data-name="Layer 1" viewBox="0 0 24 24">
  <path d="M1,12c0,5.122,1.25,11,11,11,7.71,0,11-3.29,11-11,0-5.122-1.25-11-11-11C4.29,1,1,4.29,1,12Zm21,0c0,7.103-2.897,10-10,10S2,19.103,2,12,4.897,2,12,2s10,2.897,10,10Z"/>
  <g>
    <path d="M1,12c0,5.122,1.25,11,11,11,7.71,0,11-3.29,11-11,0-5.122-1.25-11-11-11C4.29,1,1,4.29,1,12Zm21,0c0,7.103-2.897,10-10,10S2,19.103,2,12,4.897,2,12,2s10,2.897,10,10Z"/>
    <path d="M11.466,8.483c-.035,.064-.794,1.452-.933,3.017h-3.783c-.276,0-.5,.224-.5,.5s.224,.5,.5,.5h3.788c.159,1.575,.968,2.964,1.006,3.028,.111,.188,.332,.283,.545,.233,3.415-.8,5.47-3.339,5.552-3.45,.255-.344-.01-.634-.022-.648-.371-.436-2.386-2.646-5.598-3.423-.219-.053-.446,.047-.555,.244Zm5.111,3.52c-.605,.636-2.152,2.063-4.344,2.688-.259-.528-.717-1.614-.722-2.697,.028-1.071,.416-2.144,.66-2.68,2.229,.646,3.763,2.023,4.405,2.689Z"/>
  </g>
</svg>
