<?xml version="1.0" encoding="UTF-8"?>
<svg id="OBJECTS" xmlns="http://www.w3.org/2000/svg" xmlns:xlink="http://www.w3.org/1999/xlink" viewBox="0 0 976.52362 823.34344">
  <defs>
    <style>
      .cls-1 {
        fill: url(#linear-gradient-4);
      }

      .cls-2 {
        fill: url(#linear-gradient-3);
      }

      .cls-3 {
        fill: url(#linear-gradient-2);
      }

      .cls-4 {
        fill: url(#linear-gradient);
      }

      .cls-5 {
        fill: #fdcc9a;
      }
    </style>
    <linearGradient id="linear-gradient" x1="326.37482" y1="553.63145" x2="511.86226" y2="327.06895" gradientTransform="translate(0 826) scale(1 -1)" gradientUnits="userSpaceOnUse">
      <stop offset="0" stop-color="#ffa37f"/>
      <stop offset=".6211" stop-color="#e99574"/>
    </linearGradient>
    <linearGradient id="linear-gradient-2" x1="353.52374" y1="518.09927" x2="539.18" y2="315.58399" gradientTransform="translate(0 826) scale(1 -1)" gradientUnits="userSpaceOnUse">
      <stop offset="0" stop-color="#fda27e"/>
      <stop offset=".99078" stop-color="#e29070"/>
    </linearGradient>
    <linearGradient id="linear-gradient-3" x1="434.3819" y1="488.07703" x2="690.86192" y2="184.46819" gradientTransform="translate(0 826) scale(1 -1)" gradientUnits="userSpaceOnUse">
      <stop offset="0" stop-color="#fda27e"/>
      <stop offset=".80765" stop-color="#df8f6f"/>
    </linearGradient>
    <linearGradient id="linear-gradient-4" x1="682.13688" y1="254.88333" x2="863.50444" y2="159.17123" gradientTransform="translate(-160.4975 404.67294) rotate(22.09187) scale(1 -1)" gradientUnits="userSpaceOnUse">
      <stop offset="0" stop-color="#ffa37f"/>
      <stop offset=".92105" stop-color="#e29070"/>
    </linearGradient>
  </defs>
  <g>
    <path class="cls-4" d="M55.9946,536.46851c11.5747-18.1217,34.8614-27.47211,55.3875-22.23969,18.8979,4.8172,45.39149,26.19611,61.5666,3.32471,7.47549-10.5705,8.16319-24.44141,9.39249-37.4296,1.22929-12.98801,3.91499-27.112,13.7581-35.40521,11.759-9.9075,27.41631-7.34061,41.4016-8.74539,17.009-1.7085,31.39551-9.53351,42.311-23.18381,21.45029-26.8241,21.47919-64.06641,37.923-93.47949,24.14029-43.17999,74.1738-32.8139,112.45639-16.65839,38.62048,16.2981,74.32489,51.5777,116.38782,57.61209,26.30298,3.77341,48.28638-20.90302,53.45099-45.27869,7.59021-35.8248-14.47821-69.32309-10.43762-104.69791,2.50641-21.94431,23.2951-41.095,20.11951-64.2803-3.2771-23.9262-25.46527-40.4961-27.75439-64.9208-2.62323-27.9909,25.72552-52.0874,53.164-50.6679s51.01129,22.5421,63.3714,47.655c10.97192,22.2922,14.67139,47.47549,18.22388,72.1702,7.74933,53.8685,15.49872,107.73671,23.24799,161.60512,2.83319,19.6947,5.63391,40.0592.53851,59.271-6.08917,22.9588-22.71466,41.47839-31.13361,63.65259-13.91138,36.64059-3.91028,77.52753-.87219,116.71417,3.03815,39.18671-5.5752,85.79242-40.17902,102.84772-25.52728,12.58179-56.16382,4.10791-81.64111-8.57941-25.47742-12.68738-49.70459-29.62958-77.6413-34.4624-47.23801-8.17181-92.30811,19.59668-134.5083,42.80823-42.2002,23.21143-94.259,42.7475-136.36099,19.34973-29.89119-16.61169-49.81119-52.84912-83.4955-57.67999-16.27869-2.33472-32.5699,3.45709-48.994,4.15363-42.8421,1.81622-74.7645-44.18622-49.6828-83.45508l.00006-.00012Z"/>
    <path class="cls-5" d="M739.9649,311.84839c-7.74933-53.86841-15.49872-107.73669-23.24799-161.6051-3.55261-24.6947-7.25208-49.878-18.22382-72.1703-12.36023-25.1128-35.93298-46.2354-63.37152-47.655-27.43848-1.4194-55.78723,22.6771-53.16388,50.668,2.289,24.4247,24.47729,40.9946,27.75421,64.92079,3.17572,23.1853-17.61298,42.336-20.11938,64.2803-4.04053,35.3748,18.02777,68.87311,10.43762,104.69791-5.16449,24.3757-27.14801,49.05209-53.45099,45.27869-42.0629-6.03439-77.7673-41.31409-116.38791-57.61221-38.2825-16.1554-88.31601-26.52161-112.4563,16.65851-16.4437,29.41309-16.47281,66.6554-37.923,93.47949-10.91559,13.6503-25.30209,21.47519-42.311,23.18381-13.98518,1.40479-29.64259-1.16211-41.4016,8.74539-9.84309,8.29321-12.52879,22.41711-13.7581,35.40521-1.22929,12.98819-1.91701,26.85901-9.39249,37.4296-16.175,22.8714-42.66881,1.49249-61.56671-3.32471-20.5261-5.2323-43.8127,4.11798-55.3875,22.23969-25.0816,39.26892,6.8408,85.27118,49.683,83.45508,16.424-.69647,32.7151-6.48828,48.9939-4.15369,33.6844,4.83087,53.60431,41.0683,83.4955,57.68011,42.10191,23.39783,94.16081,3.86169,136.36101-19.34973,42.2002-23.21149,87.27029-50.97998,134.5083-42.80823,27.93671,4.83289,52.16382,21.77502,77.64117,34.4624,25.47748,12.68732,56.11401,21.16119,81.64111,8.57928,34.60382-17.05518,43.21722-63.66101,40.1792-102.8476-3.03821-39.18671-13.03931-80.07361.87219-116.7142,8.41882-22.17419,25.04431-40.69382,31.13348-63.65259,5.0954-19.21191,2.29468-39.57629-.53851-59.271v.00009ZM740.05109,370.99399c-3.38928,12.77921-10.19623,24.4093-16.77808,35.6572-5.21942,8.91779-10.61627,18.1391-14.3396,27.94751-10.83582,28.54041-7.1803,59.99249-3.64551,90.40881,1.01392,8.724,2.0625,17.7439,2.74329,26.5174,1.18042,15.22638,1.10632,37.91528-5.95142,59.53271-6.74017,20.64337-18.16718,35.0578-33.96442,42.8443-8.27557,4.07861-17.62268,6.14752-27.7796,6.14838-15.84479.00092-33.82898-4.95428-53.45288-14.72632-6.5874-3.2807-13.2049-6.90887-19.60559-10.41718-18.3786-10.07452-37.383-20.49261-58.16351-24.08801-5.6239-.97308-11.43799-1.4657-17.2796-1.4657-37.66571,0-73.48669,19.88849-108.12741,39.12152-3.14951,1.74847-6.28259,3.48859-9.40009,5.20343-36.52011,20.0871-67.08792,29.85162-93.45023,29.85162-15.6398.00092-29.9272-3.53271-42.466-10.50061-11.7674-6.53992-22.1302-16.27252-32.1526-25.68488-15.2354-14.31042-30.99049-29.10687-51.5011-32.04858-2.6088-.37469-5.28439-.55627-8.1786-.55627-7.32491,0-14.76871,1.21179-21.9673,2.3844-6.2013,1.00958-12.6138,2.05292-18.9331,2.3208-.8144.03461-1.6297.05243-2.4358.05243-20.8611,0-39.8445-11.39679-49.542-29.74377-8.9665-16.96472-7.9801-36.29028,2.7076-53.02271,9.1046-14.25519,26.1115-23.46521,43.327-23.46521,3.9466,0,7.8337.48041,11.5542,1.42908,4.6942,1.1969,9.8294,3.40912,15.2665,5.75232,9.0827,3.91388,18.4746,7.96069,27.2929,7.96069,8.0898,0,14.46851-3.45868,19.50031-10.57269,6.94791-9.8244,8.0872-22.37421,9.1879-34.51001.0961-1.05539.19131-2.10809.291-3.15521,1.20239-12.69769,3.7572-26.79559,13.58931-35.08029,8.78889-7.4043,19.95149-7.74799,30.74619-8.08051,3.44231-.10681,7.00182-.2164,10.40401-.55731,17.2795-1.7373,31.6218-9.59579,42.62698-23.3584,12.21759-15.27701,17.59891-34.1962,22.80371-52.49258,3.96671-13.9415,8.06699-28.35779,15.164-41.05219,11.2778-20.17331,29.39099-30.40179,53.83539-30.40179,16.57681,0,36.10278,4.69312,58.03632,13.94901,14.83551,6.26031,29.5484,15.5228,43.77631,24.48041,22.98941,14.47339,46.76031,29.43851,72.72449,33.16321,1.7981.25851,3.62268.3887,5.42072.3887,24.28601,0,43.75812-23.40909,48.55292-46.0408,4.06268-19.17389-.38159-37.9306-4.67865-56.0697-3.75262-15.83611-7.63239-32.2112-5.75201-48.6743,1.07062-9.3716,5.60919-18.435,9.99872-27.2002,5.8736-11.7298,11.94757-23.85899,10.1203-37.202-1.60858-11.74339-7.81262-21.8586-13.81158-31.6409-6.28076-10.2416-12.77576-20.8316-13.94061-33.2596-1.05603-11.2639,2.97198-22.6579,11.34009-32.0838,10.07269-11.3449,24.66675-18.118,39.03918-18.118.76678,0,1.52899.0192,2.29492.059,12.8197.6631,25.64032,5.7954,37.07727,14.8424,10.58337,8.3728,19.53979,19.6277,25.89929,32.5493,11.04718,22.4444,14.67261,47.6492,18.1781,72.02429l23.24841,161.60519c2.67383,18.58301,5.70343,39.64499.54993,59.07559l.00006-.00018Z"/>
  </g>
  <g>
    <path class="cls-3" d="M69.4531,547.36469c11.5978-17.74091,34.9312-26.89478,55.49841-21.7724,18.9357,4.71588,45.48239,25.64569,61.6898,3.25482,7.49049-10.34839,8.1796-23.9278,9.4113-36.64319,1.2318-12.71509,3.9229-26.5423,13.78571-34.66119,11.78259-9.6994,27.47121-7.1864,41.4845-8.56158,17.04309-1.6727,31.45831-9.33319,42.39569-22.69681,21.49323-26.2605,21.52231-62.72018,37.99899-91.51529,24.1886-42.2728,74.3222-32.12451,112.68149-16.3085,38.69781,15.95569,74.47369,50.49411,116.62091,56.40161,26.35559,3.69421,48.38312-20.46371,53.55792-44.32721,7.60541-35.07211-14.50708-67.8667-10.45837-102.49811,2.51141-21.48331,23.34167-40.2316,20.15979-62.9297-3.28369-23.42351-25.5163-39.6453-27.81-63.5568-2.62848-27.4028,25.77698-50.993,53.27039-49.6033,27.49353,1.3896,51.1134,22.0684,63.49829,46.65371,10.9939,21.8238,14.70068,46.478,18.26038,70.6539,7.76477,52.7365,15.52972,105.47299,23.29449,158.20959,2.83893,19.28079,5.6452,39.21741.53961,58.0256-6.10138,22.47629-22.76019,40.6069-31.19592,62.31509-13.93927,35.87079-3.91821,75.89862-.87402,114.26202,3.04419,38.36328-5.5863,83.98981-40.2594,100.68671-25.57837,12.31738-56.27618,4.02161-81.80463-8.39917s-49.80408-29.0069-77.79669-33.73822c-47.3327-8.00018-92.49289,19.18488-134.77759,41.90869-42.28479,22.72369-94.44769,41.8493-136.634,18.94318-29.9511-16.26282-49.911-51.73877-83.66269-56.4682-16.31129-2.28558-32.6351,3.38458-49.0921,4.06641-42.928,1.77802-74.9142-43.25781-49.7823-81.7016l.00005-.00006Z"/>
    <path class="cls-5" d="M754.79279,327.4642c-7.76477-52.7366-15.52972-105.4731-23.29449-158.20959-3.55969-24.1759-7.2666-48.8301-18.26031-70.654-12.38501-24.5852-36.005-45.264-63.49829-46.6537-27.49359-1.3896-55.89899,22.2006-53.27045,49.6034,2.29352,23.9115,24.52618,40.1333,27.80981,63.55681,3.18201,22.6981-17.64832,41.4464-20.15973,62.9297-4.04871,34.63139,18.06378,67.42589,10.4585,102.498-5.17493,23.86359-27.20239,48.02151-53.55811,44.3273-42.14709-5.9075-77.923-40.44589-116.62079-56.40161-38.35928-15.81601-88.49289-25.96429-112.68161,16.30841-16.47659,28.7951-16.50568,65.25488-37.9989,91.51541-10.93741,13.36349-25.35269,21.02411-42.39569,22.69669-14.0132,1.37531-29.7019-1.1377-41.4845,8.56171-9.86279,8.1189-12.55389,21.94611-13.78558,34.66119-1.23181,12.71539-1.92091,26.29468-9.41141,36.64319-16.2074,22.39093-42.7542,1.46112-61.6899-3.25482-20.5672-5.12238-43.9004,4.03137-55.4984,21.77228-25.1318,38.44391,6.8544,83.47968,49.78239,81.70172,16.45689-.68188,32.7807-6.35199,49.092-4.06641,33.75189,4.72937,53.7117,40.20538,83.66269,56.4682,42.18631,22.90613,94.3493,3.78052,136.634-18.94318,42.2847-22.72382,87.44501-49.90887,134.77771-41.90881,27.99261,4.73138,52.26819,21.3175,77.79669,33.73828,25.52838,12.42078,56.2262,20.71661,81.8045,8.39911,34.6731-16.6969,43.30371-62.32343,40.25958-100.68671-3.04431-38.36328-13.06543-78.39111.87402-114.26181,8.43573-21.70831,25.09442-39.8389,31.1958-62.31531,5.10559-18.80811,2.29932-38.74469-.53961-58.02551l.00006.00006ZM754.87927,385.367c-3.39612,12.51071-10.21667,23.89639-16.81183,34.90799-5.2298,8.73041-10.63751,17.7579-14.36829,27.36029-10.85748,27.9407-7.19458,58.73199-3.65277,88.50919,1.01593,8.54071,2.06671,17.37097,2.74878,25.96033,1.1828,14.90649,1.10852,37.11859-5.96332,58.2818-6.75372,20.20959-18.20361,34.32123-34.03241,41.94397-8.29218,3.99298-17.65802,6.01837-27.83533,6.01929-15.87646.00092-33.89673-4.85028-53.55988-14.41687-6.60052-3.21179-13.23138-6.76367-19.6449-10.1983-18.41528-9.86279-37.45782-20.06207-58.27991-23.58191-5.63507-.9527-11.46088-1.43488-17.31421-1.43488-37.74109,0-73.63391,19.47058-108.34381,38.2995-3.15591,1.71179-6.29529,3.41528-9.41901,5.09412-36.59329,19.66498-67.2222,29.2243-93.6373,29.2243-15.67111.00092-29.98709-3.45837-42.55099-10.27991-11.791-6.40253-22.17448-15.9306-32.217-25.1452-15.2659-14.00983-31.0526-28.49542-51.6042-31.37531-2.614-.3667-5.29491-.54462-8.19501-.54462-7.3396,0-14.79829,1.1864-22.01129,2.33429-6.21361.9884-12.63911,2.00983-18.971,2.27197-.816.034-1.63291.05139-2.44071.05139-20.9028,0-39.92419-11.15741-49.6412-29.1189-8.9844-16.60822-7.996-35.52783,2.713-51.90857,9.12291-13.95569,26.1638-22.97223,43.4138-22.97223,3.9545,0,7.8494.47028,11.5774,1.39911,4.7035,1.17181,9.84901,3.3374,15.297,5.63141,9.10091,3.8316,18.5117,7.7934,27.3475,7.7934,8.10609,0,14.4976-3.38599,19.53951-10.35052,6.96181-9.61798,8.1033-21.90399,9.2063-33.78479.09621-1.03339.1916-2.0639.2915-3.08899,1.2048-12.43091,3.76469-26.2326,13.6165-34.3432,8.8065-7.24881,19.99141-7.5853,30.80769-7.9108,3.4493-.10449,7.0159-.21179,10.4248-.5455,17.31421-1.70081,31.6853-9.39429,42.71249-22.86771,12.242-14.95599,17.63409-33.47769,22.8493-51.38959,3.97461-13.64859,8.0831-27.76199,15.1944-40.1897,11.30038-19.74939,29.4498-29.763,53.94308-29.763,16.60999,0,36.17511,4.59451,58.1525,13.65591,14.8652,6.12881,29.6076,15.19669,43.86398,23.96609,23.03549,14.16931,46.85388,28.82001,72.87012,32.4664,1.8017.25299,3.62988.38049,5.43158.38049,24.33459,0,43.84558-22.91721,48.65002-45.07339,4.07092-18.77109-.38232-37.1337-4.68793-54.8916-3.76007-15.50339-7.64758-31.53439-5.76349-47.6516,1.07281-9.1747,5.62042-18.0477,10.01868-26.62871,5.88538-11.48331,11.97162-23.3577,10.14062-36.42039-1.61188-11.4966-7.82831-21.39931-13.83929-30.976-6.2934-10.0264-12.80127-20.394-13.96851-32.5608-1.05811-11.0272,2.97803-22.1819,11.36279-31.4097,10.0929-11.1065,24.716-17.7373,39.11731-17.7373.76837,0,1.5321.0188,2.2995.0577,12.8454.6492,25.69171,5.6736,37.15161,14.5306,10.60461,8.1968,19.57892,19.2153,25.95111,31.8654,11.0694,21.9728,14.70209,46.648,18.2146,70.51099l23.29492,158.20959c2.67908,18.1926,5.7149,38.8121.55109,57.83441l.00006.00003Z"/>
  </g>
  <g>
    <path class="cls-2" d="M269.43039,544.52667c36.4548-23.89459,35.4671-79.09329,64.39279-111.70041,23.96652-27.01691,63.94202-33.25421,99.9379-30.32111s71.40671,13.2355,107.51028,12.32169c36.1037-.9137,75.34552-16.6004,89.60248-49.7825,18.90411-43.9985-13.68341-94.83292-4.21869-141.776,5.68481-28.19569,26.1756-52.3802,28.4389-81.05411,2.24609-28.4543-13.66449-58.9014-.89398-84.428,10.84448-21.6767,40.22748-29.5997,62.92297-21.091,22.6955,8.5085,38.64337,29.8652,46.5603,52.7737,7.91711,22.9085,8.95117,47.5365,9.91107,71.75549,2.88422,72.7556,5.76825,145.5112,8.65222,218.26691,1.6308,41.14069,3.2619,82.30109,2.8786,123.47241-.34131,36.66852-3.16071,75.86169-25.42987,104.99573-19.21887,25.14331-49.70477,38.4989-78.84698,50.83929-56.37091,23.87042-117.22711,48.23682-177.10602,35.50909-32.9194-6.99731-63.69467-25.0249-97.34851-25.29669-46.83209-.37848-87.41339,33.45331-133.76199,40.17603-36.5797,5.30579-75.36301-7.77802-101.2533-34.15833-25.97211-26.4635-46.91479-68.41101-20.9037-101.53589,31.49699-40.11139,79.2885-2.96637,118.95549-28.96631h.00003Z"/>
    <path class="cls-5" d="M782.2467,379.4913c-2.88397-72.75558-5.76801-145.5112-8.65222-218.26691-.9599-24.2189-1.99408-48.8469-9.91101-71.7554s-23.86499-44.2652-46.56042-52.7737c-22.69537-8.5087-52.07861-.5857-62.92291,21.091-12.77063,25.5266,3.14008,55.9737.89392,84.428-2.26331,28.6739-22.75409,52.8584-28.43903,81.05411-9.4646,46.94308,23.12292,97.7775,4.21881,141.776-14.25702,33.1821-53.49872,48.8688-89.60248,49.7825-36.10361.91379-71.5144-9.38861-107.51019-12.32169-35.996-2.93311-75.9715,3.3042-99.93799,30.32101-28.9256,32.60712-27.93799,87.80591-64.39279,111.7005-39.6669,25.99988-87.4585-11.14508-118.95551,28.96631-26.0111,33.12488-5.06841,75.07233,20.90381,101.53589,25.8902,26.38037,64.67358,39.46399,101.2532,34.15833,46.3486-6.72272,86.9299-40.5545,133.76199-40.17609,33.65381.27191,64.42899,18.29938,97.34851,25.29681,59.87881,12.72772,120.7352-11.63867,177.10599-35.50909,29.14221-12.34052,59.62811-25.69598,78.84711-50.83929,22.26898-29.13397,25.0885-68.32721,25.42981-104.9957.3833-41.1712-1.24768-82.3317-2.8786-123.4725v-.00009ZM784.65546,502.95929c-.32642,35.0556-2.5791,74.94769-25.33307,104.7149-19.6485,25.70532-50.99817,38.9798-78.65741,50.69189-50.34625,21.32001-95.83862,38.9679-142.75763,38.9679-11.72589,0-23.18768-1.17273-34.06821-3.48499-12.66748-2.69287-25.2222-7.09479-37.36429-11.35181-19.33398-6.77838-39.3255-13.7879-60.077-13.95569l-.78491-.00269c-25.78879,0-50.1225,10.44128-73.65399,20.53967-19.0892,8.19128-38.82849,16.66138-59.39389,19.64392-5.30231.76929-10.74939,1.15991-16.18921,1.15991-31.8613,0-62.7195-12.82343-84.6629-35.18219-14.5049-14.77991-25.0994-31.85199-29.8295-48.07239-5.84689-20.04742-2.8322-37.82733,8.9606-52.84473,13.7182-17.47101,30.25121-19.87872,46.07462-19.87872,5.282,0,10.786.3136,16.10849.61798,5.481.31262,11.14909.63629,16.75031.63629,11.30859,0,26.0638-1.16351,39.9104-10.23962,20.60211-13.50372,29.50031-37.4267,38.1051-60.56119,6.76379-18.1861,13.75861-36.99109,26.3812-51.22,22.60172-25.47711,57.9306-30.8252,83.58829-30.8252,5.21149,0,10.58069.22189,15.95999.6601,14.27841,1.16351,28.7063,3.5282,42.65829,5.8139,19.70169,3.2283,40.0755,6.56659,60.32092,6.56659,1.52655,0,3.05316-.01831,4.5816-.05679,18.94989-.47949,37.84113-5.04099,53.19409-12.84171,17.4361-8.85971,30.17047-21.73169,36.82703-37.22491,10.42657-24.26501,5.17657-51.1091.09991-77.06989-4.2002-21.48129-8.54431-43.69391-4.28912-64.79889,2.55157-12.6537,8.19501-24.7023,13.65222-36.3548,6.65918-14.2184,13.54492-28.92081,14.79462-44.7547.8811-11.1579-1.03326-22.727-2.88538-33.9155-2.97058-17.9519-5.77722-34.908,1.94379-50.3399,7.34961-14.691,24.44281-24.1838,43.54767-24.1838,6.58771,0,12.90948,1.1176,18.79028,3.3227,20.54712,7.7031,37.41663,26.8341,46.28088,52.4872,7.96021,23.0327,8.93951,47.73321,9.88568,71.6209l8.65253,218.26691c1.60358,40.45969,3.26129,82.2919,2.87799,123.44931Z"/>
  </g>
  <g>
    <path class="cls-1" d="M332.85489,548.63678c22.18881-3.6579,45.61899-.65491,66.70969-8.45892,40.26221-14.89789,61.83191-65.19818,104.0321-73.08121,27.8988-5.21149,57.92261,10.1705,84.37579-.11169,42.87622-16.66571,45.20599-87.07739,89.18188-100.5766,18.98608-5.82819,39.68597,1.59641,59.26813-1.71719,27.22192-4.6066,46.3974-28.29819,63.92432-49.63019,17.52698-21.332,39.55463-43.59979,67.16302-43.4404,32.59039.1879,57.03308,33.67941,59.24921,66.19492s-11.70801,63.70941-25.32208,93.32062c-24.1969,52.62921-48.39392,105.2583-72.5907,157.88739-26.01648,56.58649-52.0329,113.1731-78.04932,169.75958-4.18988,9.11322-8.59698,18.52118-16.19348,25.0708-16.97888,14.63879-43.24487,9.89899-63.45551.19788-20.21051-9.70117-39.27411-23.73462-61.59082-25.86609-26.6405-2.54437-55.31238,12.21527-79.18457.11932-25.44449-12.89288-29.23419-47.91638-48.45801-68.98999-14.48441-15.87799-36.70419-22.45758-58.13159-24.12347-21.42731-1.66589-42.98471.86359-64.4501-.2063-21.4653-1.06982-43.8255-6.3161-59.582-20.93311-35.70679-33.12518-10.828-88.1731,33.1041-95.41528l-.00006-.00006Z"/>
    <path class="cls-5" d="M926.75903,337.81549c-2.21613-32.5155-26.65869-66.00702-59.24908-66.19489-27.60852-.15939-49.63605,22.10831-67.16321,43.44031-17.52679,21.33209-36.70233,45.02371-63.92432,49.63019-19.58209,3.31369-40.28192-4.1109-59.26801,1.71719-43.97589,13.4993-46.30566,83.91101-89.18188,100.5766-26.45319,10.28241-56.47699-5.09961-84.37592.11179-42.2001,7.883-63.76981,58.18329-104.03198,73.08118-21.0907,7.80408-44.52087,4.80103-66.70972,8.45892-43.93201,7.24213-68.81091,62.28998-33.1041,95.41522,15.7565,14.61713,38.1167,19.8634,59.582,20.93329,21.46539,1.06982,43.0228-1.45972,64.4502.20612,21.42731,1.66589,43.64709,8.24561,58.13141,24.1236,19.22391,21.07361,23.01361,56.09711,48.45813,68.98999,23.87219,12.09589,52.54401-2.6637,79.18469-.11932,22.31671,2.13141,41.38031,16.16498,61.5907,25.86609,20.21057,9.70111,46.47662,14.44092,63.45551-.19788,7.5965-6.54962,12.0036-15.9577,16.19348-25.0708,26.01642-56.58649,52.03284-113.17297,78.04932-169.75958,24.19684-52.62909,48.39374-105.2583,72.5907-157.88739,13.61407-29.61121,27.53821-60.80511,25.32208-93.32062ZM901.0108,430.94l-150.6402,327.64777c-3.94751,8.58289-8.4201,18.31128-16.07428,24.90991-7.03461,6.06641-16.11731,9.15833-26.99512,9.19043-9.19928.02661-19.57458-2.19623-30.00592-6.42877-1.98889-.80713-3.98956-1.69232-5.94391-2.63092-5.36737-2.57617-10.7489-5.51031-15.95258-8.34851-7.70105-4.19897-15.66382-8.54089-23.78058-11.83508-7.85846-3.18927-15.06-5.06207-22.01642-5.72729-10.55969-1.00739-21.53479.703-32.14948,2.35681-15.5509,2.4231-30.2403,4.71289-43.77478-.78003-1.04657-.4248-2.08728-.89862-3.09277-1.40759-14.95502-7.57843-22.24142-22.6322-29.95599-38.56927-5.16382-10.66779-10.50323-21.69769-18.36691-30.3186-6.46078-7.08179-14.86331-12.75391-24.97479-16.85773-9.74121-3.95343-21.0011-6.44922-33.4675-7.41803-11.55688-.8985-23.3342-.57349-34.72391-.26031-9.75659.26849-19.8447.54681-29.7395.05371-14.5936-.72791-27.43719-3.3053-38.17151-7.6618-8.18988-3.32379-15.29361-7.74652-21.1149-13.14679-15.14532-14.0509-20.46451-33.30328-14.5921-52.8197,6.53229-21.71051,25.1582-38.11298,47.45331-41.78857,8.42639-1.38922,17.18182-1.82159,25.6488-2.24042,13.77719-.68103,28.0239-1.38519,41.14728-6.24109,18.68549-6.91382,33.51361-21.56061,47.85391-35.7247,16.4834-16.28259,33.52811-33.11899,56.10211-37.3356,12.38022-2.31271,25.39297-.5155,37.978,1.2218,15.59637,2.15311,31.72418,4.3793,46.48151-1.35709,21.17639-8.2312,32.64929-29.681,43.74451-50.42419,11.38928-21.2948,23.16718-43.3154,45.40479-50.1412,10.39539-3.19049,21.55957-2.35831,32.35571-1.5528,8.86078.66119,18.0235,1.34409,26.85339-.14951,27.06787-4.58139,46.46259-28.19321,63.57538-49.0253l.63348-.771c17.65277-21.4848,39.39337-43.42609,66.79694-43.2681,6.01703.03448,11.95367,1.22281,17.6449,3.53259,22.34277,9.06769,39.26031,34.65601,41.13922,62.22421,2.2619,33.1857-12.37073,65.01239-25.28003,93.0928l-.00006-.00003Z"/>
  </g>
</svg>