<?xml version="1.0" encoding="UTF-8"?>
<svg xmlns="http://www.w3.org/2000/svg" id="Layer_1" data-name="Layer 1" viewBox="0 0 24 24">
  <path d="M22.765,5.115c-.748-.312-1.603-.142-2.188,.441l-3.044,3.185L13.414,3.584c-.779-.78-2.048-.779-2.865,.042l-4.084,5.117-3.051-3.157c-.566-.563-1.435-.74-2.179-.433C.484,5.463,0,6.188,0,7.001v9.999c0,2.757,2.244,5,5,5h14c2.757,0,5-2.243,5-5V6.963c0-.812-.485-1.538-1.235-1.848Zm.235,11.885c0,2.206-1.794,4-4,4H5c-2.206,0-4-1.794-4-4V7.001c-.033-.861,1.114-1.337,1.701-.713l3.44,3.56c.195,.225,.572,.194,.75-.036l4.402-5.521c.39-.39,1.024-.388,1.377-.042l4.439,5.562c.178,.233,.559,.259,.752,.034l3.431-3.59c.592-.634,1.737-.158,1.708,.707v10.037Z"/>
</svg>
