<?xml version="1.0" encoding="UTF-8"?>
<svg xmlns="http://www.w3.org/2000/svg" id="Layer_1" data-name="Layer 1" viewBox="0 0 24 24">
  <path d="M14,23.5c0,.276-.224,.5-.5,.5H3.837c-1.331,0-2.532-.615-3.212-1.646-.415-.629-.625-1.35-.625-2.14,0-3.647,3.741-7.88,5.97-10.079,.664-.654,1.03-1.535,1.03-2.479V1h-1.5c-.276,0-.5-.224-.5-.5s.224-.5,.5-.5h12c.276,0,.5,.224,.5,.5s-.224,.5-.5,.5h-1.5V7.657c0,.858,.31,1.68,.874,2.314,.184,.206,.165,.522-.042,.706s-.523,.165-.706-.042c-.727-.817-1.126-1.875-1.126-2.978V1h-7V7.657c0,1.214-.472,2.347-1.328,3.19-.872,.86-2.333,2.399-3.554,4.153h6.382c.276,0,.5,.224,.5,.5s-.224,.5-.5,.5H2.5c-.01,0-.019-.005-.029-.006-.851,1.401-1.471,2.878-1.471,4.22,0,.592,.155,1.126,.46,1.589,.494,.749,1.383,1.196,2.377,1.196H13.5c.276,0,.5,.224,.5,.5Zm6-5.5c0,1.103-.897,2-2,2s-2-.897-2-2,.897-2,2-2,2,.897,2,2Zm-1,0c0-.551-.449-1-1-1s-1,.449-1,1,.449,1,1,1,1-.449,1-1Zm4.332,1.904c.101,.388,.044,.792-.16,1.137-.418,.713-1.337,.952-2.053,.533l-.223-.131c-.408,.34-.881,.606-1.396,.786v.271c0,.827-.673,1.5-1.5,1.5s-1.5-.673-1.5-1.5v-.271c-.515-.18-.988-.446-1.396-.786l-.223,.131c-.715,.418-1.634,.18-2.053-.533-.203-.345-.26-.749-.159-1.137,.101-.388,.347-.713,.692-.917l.234-.137c-.064-.3-.094-.576-.094-.85s.03-.551,.094-.85l-.234-.137c-.345-.203-.591-.528-.692-.917-.101-.388-.044-.792,.16-1.137,.419-.713,1.34-.951,2.053-.533l.223,.131c.408-.34,.881-.606,1.396-.786v-.271c0-.827,.673-1.5,1.5-1.5s1.5,.673,1.5,1.5v.271c.515,.18,.988,.446,1.396,.786l.223-.131c.715-.418,1.634-.18,2.053,.533,.203,.345,.26,.749,.159,1.137-.101,.388-.347,.713-.692,.917l-.234,.137c.064,.3,.094,.576,.094,.85s-.03,.551-.094,.85l.234,.137c.345,.203,.591,.528,.692,.917Zm-1.755-3.427l.556-.327c.115-.067,.197-.176,.23-.305,.034-.129,.015-.264-.053-.378-.068-.116-.176-.198-.306-.231-.13-.035-.264-.015-.379,.053l-.541,.318c-.197,.115-.446,.083-.607-.078-.43-.43-.984-.743-1.603-.903-.221-.057-.375-.256-.375-.484v-.642c0-.276-.224-.5-.5-.5s-.5,.224-.5,.5v.642c0,.228-.154,.427-.375,.484-.619,.16-1.173,.473-1.603,.903-.161,.162-.41,.193-.607,.078l-.541-.318c-.114-.067-.248-.086-.379-.053-.129,.033-.238,.115-.305,.23-.068,.115-.087,.25-.053,.379,.033,.129,.115,.238,.23,.305l.556,.327c.196,.115,.29,.349,.228,.568-.103,.361-.151,.664-.151,.955s.048,.594,.151,.955c.062,.219-.031,.453-.228,.568l-.556,.327c-.115,.067-.197,.176-.23,.305-.034,.129-.015,.264,.053,.378,.068,.116,.176,.198,.306,.231,.13,.034,.265,.015,.379-.053l.541-.318c.079-.046,.167-.069,.253-.069,.129,0,.258,.05,.354,.147,.429,.43,.983,.742,1.603,.903,.221,.057,.375,.256,.375,.484v.642c0,.276,.224,.5,.5,.5s.5-.224,.5-.5v-.642c0-.228,.154-.427,.375-.484,.619-.161,1.173-.473,1.603-.903,.161-.162,.411-.193,.607-.078l.541,.318c.115,.068,.25,.088,.379,.053,.129-.033,.238-.115,.305-.23,.068-.115,.087-.25,.053-.379-.033-.129-.115-.238-.23-.305l-.556-.327c-.196-.115-.29-.349-.228-.568,.103-.361,.151-.664,.151-.955s-.048-.594-.151-.955c-.062-.219,.031-.453,.228-.568Z"/>
</svg>
