<?xml version="1.0" encoding="UTF-8"?>
<svg xmlns="http://www.w3.org/2000/svg" id="Layer_1" data-name="Layer 1" viewBox="0 0 24 24">
  <path d="m22.682,5.711l-4.394-4.394c-.85-.85-1.979-1.318-3.182-1.318h-6.213c-1.202,0-2.333.468-3.182,1.318L1.318,5.711c-.85.85-1.318,1.98-1.318,3.182v6.213c0,1.202.468,2.333,1.318,3.182l4.394,4.394c.85.85,1.98,1.318,3.182,1.318h6.213c1.202,0,2.332-.468,3.182-1.318l4.394-4.394c.851-.85,1.318-1.98,1.318-3.182v-6.213c0-1.202-.468-2.332-1.318-3.182Zm.318,9.395c0,.935-.364,1.814-1.025,2.475l-4.394,4.394c-.661.661-1.54,1.025-2.475,1.025h-6.213c-.935,0-1.814-.364-2.475-1.025l-4.394-4.394c-.661-.661-1.025-1.54-1.025-2.475v-6.213c0-.935.364-1.814,1.025-2.475L6.418,2.025c.661-.661,1.54-1.025,2.475-1.025h6.213c.935,0,1.813.364,2.475,1.025l4.394,4.394c.661.661,1.025,1.541,1.025,2.475v6.213Zm-6.164-7.235l-4.146,4.146,4.146,4.146c.195.195.195.512,0,.707-.098.098-.226.146-.354.146s-.256-.049-.354-.146l-4.146-4.146-4.146,4.146c-.098.098-.226.146-.354.146s-.256-.049-.354-.146c-.195-.195-.195-.512,0-.707l4.146-4.146-4.146-4.146c-.195-.195-.195-.512,0-.707s.512-.195.707,0l4.146,4.146,4.146-4.146c.195-.195.512-.195.707,0s.195.512,0,.707Z"/>
</svg>
