<?xml version="1.0" encoding="UTF-8"?>
<svg xmlns="http://www.w3.org/2000/svg" id="Layer_1" data-name="Layer 1" viewBox="0 0 24 24">
  <path d="M12,6.73c.276,0,.5-.224,.5-.5V1.5c0-.276-.224-.5-.5-.5s-.5,.224-.5,.5V6.23c0,.276,.224,.5,.5,.5Z"/>
  <path d="M16.961,2.439c-.266-.084-.545,.059-.63,.322s.059,.544,.321,.629c3.438,1.113,5.039,3.974,5.039,9.005,0,6.822-2.808,9.605-9.691,9.605S2.308,19.217,2.308,12.395c0-5.016,1.602-7.875,5.041-8.998,.262-.085,.406-.368,.32-.63-.085-.262-.366-.405-.63-.32C3.183,3.705,1.308,6.959,1.308,12.395c0,7.434,3.198,10.605,10.692,10.605,4.978,0,10.691-1.206,10.691-10.605,0-5.527-1.821-8.691-5.73-9.956Z"/>
</svg>
