<svg id="Layer_1" viewBox="0 0 24 24" xmlns="http://www.w3.org/2000/svg" data-name="Layer 1"><path d="m12 6c-2.767 0-4 1.233-4 4s1.233 4 4 4 4-1.233 4-4-1.233-4-4-4zm0 7c-2.215 0-3-.785-3-3s.785-3 3-3 3 .785 3 3-.785 3-3 3zm9.961-9.552c-.041-.166-.164-.299-.326-.354-.132-.044-3.301-1.082-9.609-1.082s-9.478 1.038-9.609 1.082c-.162.054-.285.188-.327.354-.043.175-1.064 4.33-1.064 8.565s1.021 8.39 1.064 8.565c.042.166.165.299.327.354.131.044 3.3 1.082 9.609 1.082s9.477-1.038 9.609-1.082c.162-.054.285-.188.326-.354.043-.175 1.064-4.33 1.064-8.565s-1.021-8.39-1.064-8.565zm-15.869 17.199c.509-2.237 1.81-3.241 2.918-3.414 1.966-.31 4.014-.31 5.979 0 1.109.173 2.412 1.179 2.92 3.42-1.485.196-3.439.36-5.883.36-2.471 0-4.443-.167-5.933-.366zm14.962-.588c-.355.097-1.088.273-2.157.448-.604-2.779-2.302-4.036-3.753-4.263-2.066-.325-4.221-.325-6.289 0-1.45.227-3.147 1.481-3.752 4.255-1.043-.172-1.758-.345-2.108-.441-.227-1-.97-4.547-.97-8.047s.744-7.047.97-8.047c.871-.239 3.903-.953 9.03-.953s8.159.714 9.029.953c.228 1 .971 4.547.971 8.047s-.743 7.047-.971 8.047z"/></svg>