<?xml version="1.0" encoding="UTF-8"?>
<svg xmlns="http://www.w3.org/2000/svg" id="Layer_1" data-name="Layer 1" viewBox="0 0 24 24">
  <path d="M24,12c0,6.617-5.383,12-12,12-1.166,0-2.319-.167-3.428-.497-.265-.079-.416-.357-.337-.622,.08-.264,.354-.414,.622-.337,1.016,.302,2.073,.456,3.143,.456,6.065,0,11-4.935,11-11S18.065,1,12,1c-1.07,0-2.127,.153-3.143,.456-.265,.078-.542-.073-.622-.337-.079-.265,.072-.543,.337-.622,1.109-.33,2.262-.497,3.428-.497,6.617,0,12,5.383,12,12Zm-11.998,6h0c.535,0,1.037-.208,1.421-.593l3.436-3.56c.192-.199,.187-.515-.012-.707-.199-.191-.516-.186-.707,.013l-3.43,3.554c-.06,.06-.136,.093-.208,.134l-.002-10.341c0-.276-.224-.5-.5-.5s-.5,.224-.5,.5l.002,10.342c-.07-.04-.144-.072-.202-.13l-3.441-3.56c-.191-.199-.508-.204-.707-.012-.198,.192-.204,.508-.012,.707l3.447,3.566c.378,.378,.88,.586,1.415,.586Zm-5.993,3.228c-.88-.573-1.673-1.268-2.359-2.065-.18-.209-.496-.233-.705-.054-.209,.18-.233,.496-.054,.705,.748,.87,1.613,1.628,2.572,2.252,.084,.055,.179,.081,.272,.081,.164,0,.324-.08,.419-.227,.151-.231,.085-.542-.146-.692ZM1.109,13.558c-.039-.273-.292-.462-.565-.425-.273,.039-.464,.292-.425,.565,.16,1.128,.48,2.227,.952,3.266,.083,.184,.265,.293,.456,.293,.069,0,.139-.014,.207-.045,.251-.114,.362-.411,.248-.662-.433-.951-.726-1.958-.872-2.991Zm.624-6.769c-.254-.117-.548-.002-.662,.248-.472,1.039-.792,2.137-.952,3.266-.039,.273,.152,.526,.425,.565,.023,.003,.047,.005,.07,.005,.245,0,.459-.18,.495-.43,.146-1.033,.439-2.04,.872-2.991,.114-.251,.003-.548-.248-.662Zm1.547-1.788c.14,0,.28-.059,.379-.174,.685-.794,1.475-1.486,2.35-2.055,.231-.15,.297-.46,.146-.691-.15-.231-.46-.298-.691-.146-.954,.62-1.816,1.374-2.562,2.24-.18,.209-.157,.525,.053,.705,.094,.081,.21,.121,.326,.121Z"/>
</svg>
