<?xml version="1.0" encoding="UTF-8"?>
<svg xmlns="http://www.w3.org/2000/svg" id="Layer_1" data-name="Layer 1" viewBox="0 0 24 24">
  <path d="m23.989,11.479c.012.276-.203.509-.479.521-.008,0-.015,0-.021,0-.267,0-.488-.21-.5-.479-.252-5.9-5.079-10.521-10.989-10.521-3.712,0-7.169,1.91-9.193,5h3.693c.276,0,.5.224.5.5s-.224.5-.5.5H2.5c-.827,0-1.5-.673-1.5-1.5V1.5c0-.276.224-.5.5-.5s.5.224.5.5v3.912C4.211,2.067,7.967,0,12,0c6.447,0,11.714,5.042,11.989,11.479Zm-2.489,5.521h-4c-.276,0-.5.224-.5.5s.224.5.5.5h3.693c-2.024,3.09-5.481,5-9.193,5-5.91,0-10.737-4.622-10.989-10.521-.012-.276-.222-.506-.521-.478-.275.012-.49.245-.479.521.275,6.437,5.542,11.479,11.989,11.479,4.033,0,7.789-2.067,10-5.412v3.912c0,.276.224.5.5.5s.5-.224.5-.5v-4c0-.827-.673-1.5-1.5-1.5Z"/>
</svg>
