<?xml version="1.0" encoding="UTF-8"?>
<svg xmlns="http://www.w3.org/2000/svg" id="Layer_1" data-name="Layer 1" viewBox="0 0 24 24">
  <path d="M2.5,6.936h1.896c.426,1.255,1.473,1.89,3.131,1.89s2.705-.635,3.13-1.89h10.843c.829,0,1.5-.671,1.5-1.5s-.671-1.5-1.5-1.5H10.657c-.426-1.255-1.473-1.89-3.13-1.89s-2.705,.635-3.131,1.89h-1.896c-.829,0-1.5,.671-1.5,1.5s.671,1.5,1.5,1.5Z"/>
  <path d="M21.5,10.5h-1.896c-.426-1.255-1.473-1.89-3.131-1.89s-2.704,.635-3.13,1.89H2.5c-.829,0-1.5,.671-1.5,1.5s.671,1.5,1.5,1.5H13.343c.426,1.255,1.473,1.89,3.13,1.89s2.705-.634,3.131-1.89h1.896c.829,0,1.5-.671,1.5-1.5s-.671-1.5-1.5-1.5Z"/>
  <path d="M21.5,17.063H10.657c-.426-1.255-1.473-1.89-3.13-1.89s-2.705,.634-3.131,1.89h-1.896c-.829,0-1.5,.672-1.5,1.5s.671,1.5,1.5,1.5h1.896c.426,1.256,1.473,1.89,3.131,1.89s2.705-.635,3.13-1.89h10.843c.829,0,1.5-.672,1.5-1.5s-.671-1.5-1.5-1.5Z"/>
</svg>
