<?xml version="1.0" encoding="UTF-8"?>
<svg xmlns="http://www.w3.org/2000/svg" id="Layer_1" data-name="Layer 1" viewBox="0 0 24 24">
  <path d="M1.5,6.227H3.925c.199,2.411,1.861,2.704,3.132,2.704s2.932-.293,3.132-2.704h12.312c.276,0,.5-.224,.5-.5s-.224-.5-.5-.5H10.188c-.199-2.411-1.861-2.704-3.132-2.704s-2.932,.293-3.132,2.704H1.5c-.276,0-.5,.224-.5,.5s.224,.5,.5,.5ZM7.056,3.523c1.362,0,2.151,.36,2.151,2.204s-.789,2.204-2.151,2.204-2.151-.36-2.151-2.204,.789-2.204,2.151-2.204Z"/>
  <path d="M22.5,11.5h-2.425c-.199-2.411-1.861-2.704-3.132-2.704s-2.932,.293-3.132,2.704H1.5c-.276,0-.5,.224-.5,.5s.224,.5,.5,.5H13.812c.199,2.411,1.861,2.704,3.132,2.704s2.932-.293,3.132-2.704h2.425c.276,0,.5-.224,.5-.5s-.224-.5-.5-.5Zm-5.556,2.704c-1.362,0-2.151-.36-2.151-2.204s.789-2.204,2.151-2.204,2.151,.36,2.151,2.204-.789,2.204-2.151,2.204Z"/>
  <path d="M22.5,17.773H10.188c-.199-2.411-1.861-2.704-3.132-2.704s-2.932,.293-3.132,2.704H1.5c-.276,0-.5,.224-.5,.5s.224,.5,.5,.5H3.925c.199,2.41,1.862,2.703,3.132,2.703s2.932-.293,3.132-2.703h12.312c.276,0,.5-.224,.5-.5s-.224-.5-.5-.5Zm-15.444,2.703c-1.362,0-2.151-.36-2.151-2.203s.789-2.204,2.151-2.204,2.151,.36,2.151,2.204-.789,2.203-2.151,2.203Z"/>
</svg>
