<svg height="512" viewBox="0 0 24 24" width="512" xmlns="http://www.w3.org/2000/svg"><g id="_01" data-name="01"><path d="m7.22 2.03v19.95a5.779 5.779 0 0 1 -3.09-1.03 4.264 4.264 0 0 1 -1.08-1.08 6.143 6.143 0 0 1 -1.05-3.68v-8.38c0-3.44 1.94-5.57 5.22-5.78zm14.78 5.78v8.38c0 3.64-2.17 5.81-5.81 5.81h-7.47v-20h7.47a6.143 6.143 0 0 1 3.68 1.05 4.264 4.264 0 0 1 1.08 1.08 6.143 6.143 0 0 1 1.05 3.68zm-8.525 4.19 2.025-2.029a.75.75 0 0 0 -1.06-1.061l-2.56 2.56a.749.749 0 0 0 0 1.06l2.56 2.56a.75.75 0 0 0 1.06-1.061z"/></g></svg>