<svg height="512" viewBox="0 0 24 24" width="512" xmlns="http://www.w3.org/2000/svg"><g id="_01" data-name="01"><path d="m4.13 3.05a4.264 4.264 0 0 0 -1.08 1.08 6.143 6.143 0 0 0 -1.05 3.68v8.38c0 3.64 2.17 5.81 5.81 5.81h7.47v-20h-7.47a6.143 6.143 0 0 0 -3.68 1.05zm4.37 6.921a.75.75 0 1 1 1.056-1.061l2.56 2.56a.749.749 0 0 1 0 1.06l-2.56 2.56a.75.75 0 0 1 -1.056-1.061l2.025-2.029zm13.5-2.161v8.38a6.143 6.143 0 0 1 -1.05 3.68 4.264 4.264 0 0 1 -1.08 1.08 5.779 5.779 0 0 1 -3.09 1.03v-19.95c3.28.21 5.22 2.34 5.22 5.78z"/></g></svg>