<?xml version="1.0" encoding="UTF-8"?>
<svg xmlns="http://www.w3.org/2000/svg" id="Layer_1" data-name="Layer 1" viewBox="0 0 24 24">
  <path d="m10,23.5c0,.276-.224.5-.5.5H.5c-.276,0-.5-.224-.5-.5s.224-.5.5-.5h9c.276,0,.5.224.5.5ZM.5,20h7c.276,0,.5-.224.5-.5s-.224-.5-.5-.5H.5c-.276,0-.5.224-.5.5s.224.5.5.5Zm0-4h5c.276,0,.5-.224.5-.5s-.224-.5-.5-.5H.5c-.276,0-.5.224-.5.5s.224.5.5.5ZM12,0C5.383,0,0,5.383,0,12c0,.175.003.349.011.522.012.276.252.494.521.478.276-.012.49-.246.478-.521-.007-.159-.01-.318-.01-.478C1,5.935,5.935,1,12,1s11,4.935,11,11c0,5.91-4.621,10.737-10.521,10.99-.276.012-.49.245-.478.521.011.269.233.479.499.479.007,0,.015,0,.022,0,6.437-.275,11.479-5.542,11.479-11.989C24,5.383,18.617,0,12,0Zm.5,6c-.276,0-.5.224-.5.5v5.495c0,.172.089.333.234.424l4,2.505c.083.052.175.076.266.076.166,0,.329-.083.424-.234.146-.234.075-.543-.158-.689l-3.766-2.358v-5.218c0-.276-.224-.5-.5-.5Z"/>
</svg>
