<svg id="Layer_1" enable-background="new 0 0 512 512" viewBox="0 0 512 512" xmlns="http://www.w3.org/2000/svg"><g id="Layer_2_00000130625239578661777910000011480597600427490434_"><g id="switch_on"><path d="m255.5 119.4h119.5c21.9-.1 43.5 5.2 63 15.3 48.3 24.9 79.3 79 73.3 136.1-7 66.4-65.6 121.5-131.9 121.7-82.1.3-164.2.2-246.4-.2-12.5-.2-24.9-2.3-36.9-6.1-65.7-20.3-106.3-86.9-93.9-155.5 11.2-61.7 68.7-111.1 131.3-111.3 40.7-.1 81.3 0 122 0zm205.2 134.6c-.6-46.8-38.9-83.9-86.2-83.2-47 .6-84.3 37.7-84.5 85.1-.2 47.6 37.6 85.3 85.5 85.2 48.9-.1 85.8-37.4 85.2-87.1z" fill="#ff2147"/></g></g></svg>