<svg id="Layer_1" enable-background="new 0 0 512 512" viewBox="0 0 512 512" xmlns="http://www.w3.org/2000/svg"><g id="Layer_2_00000173123931576587435990000007244477195054799022_"><g id="switch_off"><path d="m256.5 119.4c40.7 0 81.3-.1 122 0 62.6.2 120.1 49.6 131.3 111.3 12.4 68.6-28.1 135.1-93.9 155.5-11.9 3.8-24.4 5.9-36.9 6.1-82.1.5-164.2.6-246.4.2-66.2-.3-124.8-55.4-131.8-121.8-6-57.1 24.9-111.2 73.2-136.1 19.5-10.1 41.1-15.3 63-15.3 39.8.1 79.7.1 119.5.1zm-120 221.7c47.9.1 85.7-37.6 85.5-85.2-.2-47.4-37.5-84.5-84.5-85.1-47.3-.6-85.7 36.4-86.2 83.2-.6 49.7 36.3 87 85.2 87.1z" fill="#ff2147"/></g></g></svg>