<?xml version="1.0" encoding="UTF-8"?>
<svg id="OBJECTS" xmlns="http://www.w3.org/2000/svg" xmlns:xlink="http://www.w3.org/1999/xlink" viewBox="0 0 844.09998 799.40002">
  <defs>
    <style>
      .cls-1 {
        filter: url(#drop-shadow-3);
      }

      .cls-2 {
        fill: url(#linear-gradient-4);
      }

      .cls-3 {
        fill: url(#linear-gradient);
      }

      .cls-4 {
        fill: #fbbf92;
      }

      .cls-5 {
        fill: url(#linear-gradient-2);
        filter: url(#drop-shadow-1);
      }

      .cls-6 {
        fill: url(#linear-gradient-3);
        filter: url(#drop-shadow-2);
      }
    </style>
    <linearGradient id="linear-gradient" x1="476.42578" y1="658.77871" x2="308.22578" y2="454.97876" gradientTransform="translate(0 -278)" gradientUnits="userSpaceOnUse">
      <stop offset="0" stop-color="#ffa37f"/>
      <stop offset="1" stop-color="#e29071"/>
    </linearGradient>
    <linearGradient id="linear-gradient-2" x1="397.44128" y1="617.65207" x2="247.14127" y2="448.15204" gradientTransform="translate(0 -278)" gradientUnits="userSpaceOnUse">
      <stop offset="0" stop-color="#ffa37f"/>
      <stop offset=".3" stop-color="#e69373"/>
      <stop offset=".8" stop-color="#e69373"/>
    </linearGradient>
    <filter id="drop-shadow-1" x="13" y="3.40002" width="663" height="623" filterUnits="userSpaceOnUse">
      <feOffset dx="7" dy="7"/>
      <feGaussianBlur result="blur" stdDeviation="20"/>
      <feFlood flood-color="#000" flood-opacity=".1"/>
      <feComposite in2="blur" operator="in"/>
      <feComposite in="SourceGraphic"/>
    </filter>
    <linearGradient id="linear-gradient-3" x1="375.5542" y1="599.01708" x2="222.6542" y2="426.6171" gradientTransform="translate(-20.53937 -254.69122) rotate(-2.6)" gradientUnits="userSpaceOnUse">
      <stop offset="0" stop-color="#ffa37f"/>
      <stop offset=".4" stop-color="#e69373"/>
      <stop offset=".8" stop-color="#e29071"/>
    </linearGradient>
    <filter id="drop-shadow-2" x="5" y="-5.59998" width="634" height="617" filterUnits="userSpaceOnUse">
      <feOffset dx="7" dy="7"/>
      <feGaussianBlur result="blur-2" stdDeviation="15"/>
      <feFlood flood-color="#000" flood-opacity=".1"/>
      <feComposite in2="blur-2" operator="in"/>
      <feComposite in="SourceGraphic"/>
    </filter>
    <filter id="drop-shadow-3" x="155" y="44.40002" width="336" height="337" filterUnits="userSpaceOnUse">
      <feOffset dx="7" dy="7"/>
      <feGaussianBlur result="blur-3" stdDeviation="15"/>
      <feFlood flood-color="#000" flood-opacity=".1"/>
      <feComposite in2="blur-3" operator="in"/>
      <feComposite in="SourceGraphic"/>
    </filter>
    <linearGradient id="linear-gradient-4" x1="253.02068" y1="-1143.89333" x2="367.62072" y2="-1248.39332" gradientTransform="translate(1480.91515 510.35902) rotate(-89)" gradientUnits="userSpaceOnUse">
      <stop offset=".01741" stop-color="#ffa37f"/>
      <stop offset=".84753" stop-color="#e69373"/>
    </linearGradient>
  </defs>
  <g>
    <path class="cls-3" d="M267.79999,758.59998c32.60001-13.20001,54.60001-52.09998,55.20001-88.79999.70001-49-30.29999-93.20001-36.5-141.79999-4.70001-36.89999,5.89999-75.5,28.70001-104.89999,22.79999-29.39999,57.60001-49.20001,94.5-53.79999,20.10001-2.5,40.70001-.70001,60.79999-3.20001s41.10001-10.39999,52.40002-27.29999c17.29999-25.79999,9.20001-67.30002,35.59998-83.7,25.59998-15.89999,66.40002,5.3,86-17.60001,16.90002-19.8.09998-54.59999,17-74.40001,10.20001-12,28.59998-12.89999,44-9.5s30.40002,10.10001,46.20001,9.7c35-.89999,61-40.6,53.59998-74.9-7.40002-34.3-41.20001-58.8-76.09998-62.4-34.90002-3.6-69.70001,10.6-97.70001,31.7-29.40002,22.2-53.29999,52.2-86.59998,67.8-35.29999,16.60001-76,14.7-114.89999,16.89999s-81.19998,10.60001-105.89999,40.8c-19,23.2-24.39999,55.7-45.39999,77.00002-23.10001,23.39999-58.8,27.39999-91.39999,32.20001-32.60001,4.79999-68.7,14.5-84.9,43.10001-19.6,34.39999-.5,77.60001,22.2,110.10001,17.3,24.79999,40.2,50.29999,45,80.79999,4.7,30.59998.2,61.70001-2.39999,92.20001-3.8,46.29999-.3,118.90002,50.90001,139.29999,18.10001,7.20001,35.10001,6.59998,49.79999.59998h0l-.10007.09998Z"/>
    <path class="cls-4" d="M805.29999,88.3c-7.40002-34.3-41.20001-58.8-76.09998-62.4-34.90002-3.6-69.70001,10.6-97.70001,31.7-29.40002,22.2-53.29999,52.2-86.59998,67.80001-35.29999,16.60001-76,14.7-114.89999,16.89999s-81.19998,10.60001-105.89999,40.8c-19,23.2-24.39999,55.7-45.39999,77-23.10001,23.39999-58.8,27.39999-91.39999,32.20001-32.60001,4.79999-68.7,14.5-84.9,43.10001-19.6,34.39999-.5,77.60001,22.2,110.10001,17.3,24.79999,40.2,50.29999,45,80.80002,4.7,30.59998.2,61.70001-2.39999,92.20001-3.8,46.29999-.3,118.90002,50.90001,139.29999,18.10001,7.20001,35.10001,6.59998,49.79999.59998,32.60001-13.20001,54.60001-52.09998,55.20001-88.79999.70001-49-30.29999-93.20001-36.5-141.79999-4.70001-36.89999,5.89999-75.5,28.70001-104.89999,22.79999-29.39999,57.60001-49.20001,94.5-53.79999,20.10001-2.5,40.70001-.70001,60.79999-3.20001,20.10001-2.5,41.10001-10.39999,52.39999-27.29999,17.29999-25.79999,9.20001-67.30002,35.59998-83.7,25.59998-15.89999,66.40002,5.3,86-17.60001,16.90002-19.8.09998-54.59999,17-74.40001,10.20001-12,28.59998-12.89999,44-9.5s30.40002,10.10001,46.20001,9.7c35-.89999,61-40.6,53.59998-74.9h0l-.10004.09995ZM751.59998,162.7h-1.40002c-10.20001,0-20.29999-2.89999-30.09998-5.8-4.79999-1.39999-9.70001-2.8-14.59998-3.89999-5.29999-1.2-10.40002-1.7-15.40002-1.7-8.90002,0-21.09998,2-29.09998,11.39999-8.5,10-8.59998,24-8.59998,37.5,0,13.3,0,27.2-8.40002,36.90001-8.5,10-21.20001,11.39999-33.70001,11.39999s-7.20001-.10001-10.70001-.2c-3.59998-.10001-7.29999-.2-11-.2-9.79999,0-21.09998.8-30.5,6.60001-15.5,9.60001-19.09998,27.5-23,46.29999-2.70001,13.20001-5.5,26.79999-12.70001,37.60001-13.10001,19.5-38.20001,25.39999-52,27.10001-10,1.29999-20.29999,1.39999-30.29999,1.60001s-20.39999.39999-30.5,1.60001c-37.20001,4.70001-71.79999,24.39999-94.79999,54-23,29.70001-33.5,68-28.79999,105.29999,2.70001,21.5,10.39999,42.5,17.89999,62.70001,9.39999,25.40002,19,51.79999,18.60001,79.09998-.29999,18.09998-5.79999,36.90002-15.5,53-10,16.59998-24,29.20001-39.39999,35.40002-7.60001,3.09998-15.5,4.59998-23.5,4.59998h0c-8.5,0-17.3-1.79999-25.89999-5.20001-22.5-9-37.89999-29-45.8-59.59998-7.10001-27.59998-6.5-58.29999-4.8-79.20001.39999-5.40002,1-10.90002,1.5-16.29999,2.39999-25,4.8-50.79999.89999-76.09998-3.89999-24.79999-19.60001-46.20001-34.8-66.79999-3.60001-4.89999-7-9.5-10.3-14.20001-13.2-19-22.3-37.20001-26.8-54.20001-5.7-21.20001-4.1-39.89999,4.7-55.39999,16.7-29.29999,54-38.29999,84.60001-42.89999,1.89999-.29999,3.8-.60001,5.60001-.79999,31.5-4.60001,64.10001-9.39999,86-31.5,11.39999-11.5,18.29999-26.60001,25.10001-41.10001,5.79999-12.5,11.70001-25.3,20.39999-36,20.10001-24.5,54.60001-37.8,105.60001-40.7,7-.39999,14.10001-.60001,21.10001-.89999,31.89999-1.2,65-2.39999,94-16,21.40002-10.1,39.29999-26.3,56.5-42.1,9.70001-8.8,19.59998-17.9,30.20001-25.8,27.5-20.8,58.20001-32.2,86.5-32.2s7.29999.2,10.90002.6c36.90002,3.8,68.70001,29.9,75.70001,62,3.79999,17.7-1.09998,37.4-13.09998,52.7-10.5,13.3-25.09998,21.2-40,21.60001h0l-.30011-.20006Z"/>
  </g>
  <g>
    <path class="cls-5" d="M264.79999,511.20001c14.29999-38-3.20001-83,12.89999-120.29999,11.29999-26.20001,37.20001-43.29999,63.79999-53.89999,26.5-10.60001,54.89999-16.29999,81-28.10001,26-11.79999,50.5-31.70001,58-59.3,3.60001-13.3,3-27.3,4.70001-40.90001,1.79999-13.60001,6.60001-28,17.89999-35.8,17.29999-12,41-4,61.70001-7.8,19.20001-3.5,36-18.3,41.79999-37s.29999-40.4-13.59998-54.1c-23.5-23.2-62.5-20-93-7.5s-58.10001,32.7-90.29999,39.7c-29.29999,6.4-59.79999,1.4-89.70001,3.4-72.5,4.7-135.5,49.3-194.10001,92.2-23,16.8-47.4,35.5-55.9,62.70001-5.1,16.20001-3.8,34.39999,3.6,49.70001,11.8,24.39999,37.3,40.10001,48.8,64.69998,9.10001,19.60001,8.10001,42.20001,5.6,63.70001-2.4,21.5-6.1,43.29999-1.6,64.39999,14.7,69.69998,115.10001,66.19998,138.39999,4.29999h0v-.10001Z"/>
    <path class="cls-4" d="M593.09998,74c-23.5-23.2-62.5-20-93-7.5s-58.10001,32.7-90.29999,39.7c-29.29999,6.4-59.79999,1.4-89.70001,3.4-72.5,4.7-135.5,49.3-194.10001,92.19999-23,16.8-47.4,35.5-55.9,62.70001-5.1,16.20001-3.8,34.39999,3.6,49.70001,11.8,24.39999,37.3,40.10001,48.8,64.70001,9.10001,19.60001,8.10001,42.20001,5.60001,63.70001-2.4,21.5-6.1,43.29999-1.6,64.39999,14.7,69.69998,115.1,66.19998,138.39999,4.29999,14.29999-38-3.20001-83,12.89999-120.30002,11.29999-26.20001,37.20001-43.29999,63.79999-53.89999s54.89999-16.29999,81-28.10001c26-11.79999,50.5-31.70001,58-59.3,3.60001-13.3,3-27.3,4.70001-40.90001,1.79999-13.60001,6.60001-28,17.89999-35.8,17.29999-12,41-4,61.70001-7.8,19.20001-3.5,36-18.3,41.79999-37s.29999-40.4-13.59998-54.1h0v-.09998ZM606.29999,128c-5.70001,18.5-22.29999,33.3-41.40002,36.7-4.20001.8-8.90002,1.10001-14.90002,1.10001s-5.90002,0-8.79999-.2c-2.90002,0-5.90002-.2-8.79999-.2-10,0-20.5.89999-29.39999,7-12.20001,8.5-16.60001,24.3-18.10001,36.09999-.60001,4.89999-1,10-1.29999,14.89999-.60001,8.60001-1.20001,17.5-3.39999,26-8.79999,32.5-40,50.89999-57.79999,59-14.5,6.60001-29.89999,11.29999-44.89999,15.89999-11.89999,3.70001-24.29999,7.5-36,12.20001-40.60001,16.20001-57.20001,38.39999-64,54.20001-8.29999,19.29999-7.70001,40.79999-7.10001,61.70001.60001,19.70001,1.10001,40.20001-5.79999,58.60001-5.5,14.49997-15.5,26.60001-29.10001,34.99997-12.5,7.70001-27.60001,12-42.60001,12h0c-15.5,0-29.8-4.29999-41.3-12.59998-12.60001-9-21-22.29999-24.5-38.60001-3.9-18.39999-1.6-37.60001.7-56.20001.3-2.70001.7-5.39999,1-8.10001,2.39999-21.60001,3.5-44.29999-5.7-63.89999-5.8-12.5-15.4-22.89999-24.7-32.89999-9-9.70001-18.3-19.79999-24.1-31.79999-7.4-15.20001-8.7-33.20001-3.6-49.39999,8.2-26,30.1-43.7,55.8-62.39999,53.10001-38.89999,119.2-87.2,193.89999-92.1,5-.3,10.5-.5,16.70001-.5s11.70001.1,17.39999.3c5.70001.1,11.60001.3,17.39999.3,10.60001,0,24.5-.4,38.29999-3.4,20.29999-4.5,39.10001-14.3,57.29999-23.7,10.70001-5.6,21.79999-11.4,33.10001-16,15.40002-6.3,31.29999-9.7,45.90002-9.7s35.29999,5.9,46.59998,17c13.79999,13.6,19.20001,35.2,13.5,53.7h0l-.29999-.00005Z"/>
  </g>
  <g>
    <path class="cls-6" d="M255,507.5c12.79999-39.29999-7-84.20001,7.60001-122.89999,10.29999-27.20001,35.89999-45.70001,62.39999-57.70001s55.10001-19,81-32.29999c25.89999-13.20001,49.89999-34.5,56.29999-62.89999,3.10001-13.7,1.79999-27.89999,3-41.8,1.20001-13.89999,5.5-28.7,16.60001-37.2,17-13,41.50003-5.89999,62.39999-10.7,19.40002-4.39999,35.70001-20.3,40.79999-39.5,5-19.3-1.5-41.1-16.29999-54.4-24.90002-22.5-64.39999-17.5-94.79999-3.4s-57.60001,35.9-90,44.5c-29.5,7.9-60.70001,4.2-91,7.5-73.5,8.1-135.5,56.3-193.10001,102.60001-22.6,18.2-46.5,38.2-54,66.19998-4.5,16.70001-2.3,35.10001,5.9,50.39999,13.1,24.29999,39.8,39.10001,52.5,63.5,10.1,19.5,10.1,42.60001,8.6,64.5s-4.2,44.29999,1.3,65.60001c18.2,70.20001,120,62,140.89999-2h-.09999Z"/>
    <path class="cls-4" d="M568.79999,48.1c-24.90002-22.5-64.39999-17.5-94.79999-3.4s-57.60001,35.9-90,44.5c-29.5,7.9-60.70001,4.2-91,7.5-73.5,8.1-135.5,56.3-193.10001,102.59999-22.6,18.2-46.5,38.2-54,66.20001-4.5,16.70001-2.3,35.10001,5.9,50.39999,13.1,24.29999,39.8,39.10001,52.5,63.5,10.1,19.5,10.1,42.60001,8.6,64.5s-4.2,44.29999,1.3,65.60001c18.2,70.20001,120,62,140.89999-2,12.8-39.29999-7-84.20001,7.59999-122.89999,10.29999-27.20001,35.89999-45.70001,62.39999-57.70001s55.10001-19,81-32.29999,49.89999-34.5,56.29999-62.89999c3.10001-13.7,1.79999-27.89999,3-41.8,1.20001-13.89999,5.5-28.7,16.60001-37.2,17-13,41.50003-5.89999,62.39999-10.7,19.40002-4.39999,35.70001-20.3,40.79999-39.5,5-19.3-1.5-41.1-16.29999-54.4h0l-.09998-.00002ZM584.59998,102.4c-5,19.1-21.20001,34.8-40.40002,39.2-4.20001,1-9,1.5-15.09998,1.8-3,.10001-6,.2-9,.2-2.90002,0-6,.10001-8.89999.2-10.20001.5-20.79999,1.8-29.60001,8.5-12,9.2-15.79999,25.5-16.79999,37.5-.39999,5-.5,10.2-.60001,15.2-.20001,8.8-.39999,17.89999-2.29999,26.60001-7.5,33.39999-38.29999,53.60001-56,62.60001-14.39999,7.29999-29.89999,12.89999-44.89999,18.20001-12,4.29999-24.29999,8.70001-36.10001,14-40.60001,18.29999-56.39999,41.60001-62.60001,58-7.60001,19.89999-6,41.89999-4.39999,63.10001,1.5,20,3,40.79999-3.2,59.79999-4.89999,15.00003-14.60001,27.69998-28,36.89999-12.3,8.40002-27.5,13.40002-42.8,14.09998h0c-15.8.70001-30.5-3.09998-42.5-10.90002-13.2-8.59998-22.4-21.79999-26.6-38.10001-4.8-18.5-3.3-38.10001-1.9-57.10001.2-2.79999.4-5.5.6-8.29999,1.5-22.10001,1.5-45.20001-8.7-64.70001-6.5-12.39999-16.7-22.5-26.6-32.29999-9.6-9.5-19.5-19.29999-26-31.20001-8.2-15.20001-10.3-33.39999-5.9-50,7.2-26.8,28.6-45.7,53.9-66,52.2-41.89999,117.2-94.1,192.89998-102.5,5.10001-.6,10.60001-1,17-1.3,5.89999-.3,11.89999-.4,17.70001-.5,5.79999-.1,11.79999-.3,17.70001-.5,10.70001-.5,24.89999-1.5,38.79999-5.2,20.39999-5.4,39.10001-16.3,57.10001-26.7,10.60001-6.2,21.60001-12.6,32.89999-17.8,15.39999-7.1,31.29999-11.2,46.20001-11.9,19.5-.9,36.09998,4.4,48.09998,15.2,14.59998,13.2,21.09998,34.9,16.20001,53.9h0l-.20001.00005Z"/>
  </g>
  <g class="cls-1">
    <path class="cls-2" d="M243,329c14.5-.5,28.60001-8.5,36.5-20.60001,7.29999-11.20001,9.20001-24.89999,12.20001-38,3-13,7.79999-26.7,18.60001-34.5,10.29999-7.39999,23.79999-8.10001,36.39999-9.7,12.60001-1.60001,26.39999-5.3,33.20001-16.10001,6.20001-9.89999,4.70001-23,10.20001-33.3,5.29999-9.89999,16.10001-15.2,25.89999-20.8,9.79999-5.5,19.89999-12.89999,22.10001-23.89999,1.70001-8.6-2.10001-17.6-8.10001-23.9s-14.10001-10.4-22.20001-13.6c-38.39999-15.3-82.60001-15.3-120.89999.2-13.10001,5.3-25.60001,12.4-39.60001,14.7-14.5,2.4-30.8,0-42.39999,8.9-10,7.7-13.10001,21.9-11.10001,34.4s8.10001,23.89999,13.39999,35.3c5.3,11.5,10,23.8,9,36.40001-.89999,10.7-5.89999,20.5-10.60001,30.10001-9,18.39999-12.39999,35.39999-2.3,54.20001,7.2,13.39999,25.2,20.70001,39.8,20.20001h0l-.10001-.00003Z"/>
    <path class="cls-4" d="M429.89999,108.2c-6-6.3-14.10001-10.4-22.20001-13.6-38.39999-15.3-82.60001-15.3-120.89999.2-13.10001,5.3-25.60001,12.4-39.60001,14.7-14.5,2.4-30.8,0-42.39999,8.9-10,7.7-13.10001,21.89999-11.10001,34.39999s8.10001,23.89999,13.39999,35.3c5.3,11.5,10,23.8,9,36.40001-.89999,10.7-5.89999,20.5-10.60001,30.10001-9,18.39999-12.39999,35.39999-2.3,54.20001,7.2,13.39999,25.2,20.70001,39.8,20.20001,14.5-.5,28.60001-8.5,36.5-20.60001,7.29999-11.20001,9.20001-24.89999,12.20001-38,3-13,7.79999-26.7,18.60001-34.5,10.29999-7.39999,23.79999-8.10001,36.39999-9.7,12.60001-1.60001,26.39999-5.3,33.20001-16.10001,6.20001-9.89999,4.70001-23,10.20001-33.3,5.29999-9.89999,16.10001-15.2,25.89999-20.8,9.79999-5.5,19.89999-12.89999,22.10001-23.89999,1.70001-8.6-2.10001-17.6-8.10001-23.9l-.10001-.00002ZM437.5,132c-2.20001,11.2-12.79999,18.5-21.89999,23.60001-.89999.5-1.70001,1-2.60001,1.5-9.10001,5.10001-18.5,10.39999-23.39999,19.5-2.70001,5-3.70001,10.7-4.79999,16.2-1.10001,5.89999-2.20001,12-5.39999,17.10001-7.20001,11.39999-22.20001,14.5-32.89999,15.8-1.60001.2-3.20001.39999-4.89999.60001-11.20001,1.3-22.70001,2.60001-31.79999,9.2-11.5,8.3-16.10001,22.99998-18.79999,34.8-.5,2.20001-1,4.39999-1.5,6.70001-2.29999,10.79999-4.70001,21.89999-10.70001,31.20001-7.79999,12.10001-21.70001,19.89999-36.10001,20.39999h-1.39999c-13.5,0-30.89999-6.89999-38-20-8.8-16.39999-8.10001-32.39999,2.3-53.8l.60001-1.2c4.5-9.2,9.2-18.8,10-29.10001,1.10001-12.8-3.7-25.2-9-36.7-.8-1.7-1.60001-3.39999-2.39999-5.2-4.60001-9.60001-9.3-19.5-11-30.10001-2.7-16.8,3.89999-28.6,10.89999-34,8-6.2,18.60001-6.8,28.89999-7.5,4.39999-.3,9-.6,13.39999-1.3,10.2-1.7,19.8-6,29.09999-10.1,3.39999-1.5,7-3.1,10.60001-4.6,18.79999-7.6,39.79999-11.7,60.60001-11.7s41.29999,3.9,60,11.4c6.89999,2.8,15.60001,6.8,22.10001,13.5,6.5,6.8,9.60001,15.8,8,23.50001h0l.09995.29996Z"/>
  </g>
</svg>