<?xml version="1.0" encoding="UTF-8"?>
<svg xmlns="http://www.w3.org/2000/svg" id="Layer_1" data-name="Layer 1" viewBox="0 0 24 24">
  <path d="M24,11.5c0,.276-.224,.5-.5,.5h-2.869c-.872,0-1.693-.464-2.143-1.211l-1.33-2.209-2.367,5.129c-.085,.183-.266,.291-.454,.291-.07,0-.142-.015-.21-.046-.25-.116-.359-.413-.244-.664l2.639-5.718c-.282-.352-.706-.572-1.162-.572h-1.592l-2.674,5.849c-.269,.656-.022,1.429,.594,1.818l4.056,2.323c.775,.445,1.257,1.276,1.257,2.169v4.341c0,.276-.224,.5-.5,.5s-.5-.224-.5-.5v-4.341c0-.536-.289-1.035-.755-1.302l-4.073-2.334c-1.046-.66-1.457-1.948-.996-3.072l2.491-5.451h-1.931c-.571,0-1.085,.318-1.341,.829l-1.447,2.895c-.124,.247-.424,.346-.671,.224-.247-.124-.347-.424-.224-.671l1.447-2.895c.427-.853,1.283-1.382,2.236-1.382h4.624c.871,0,1.692,.464,2.143,1.21l1.844,3.063c.27,.448,.762,.727,1.285,.727h2.869c.276,0,.5,.224,.5,.5Zm-13.888,4.976c-.262-.09-.545,.049-.636,.31l-.438,1.271c-.229,.573-.776,.943-1.393,.943h-3.146c-.276,0-.5,.224-.5,.5s.224,.5,.5,.5h3.146c1.028,0,1.939-.617,2.33-1.594l.446-1.294c.09-.261-.049-.546-.31-.636ZM13,2.5c0-1.378,1.121-2.5,2.5-2.5s2.5,1.122,2.5,2.5-1.121,2.5-2.5,2.5-2.5-1.122-2.5-2.5Zm1,0c0,.827,.673,1.5,1.5,1.5s1.5-.673,1.5-1.5-.673-1.5-1.5-1.5-1.5,.673-1.5,1.5ZM2.5,4H10.5c.276,0,.5-.224,.5-.5s-.224-.5-.5-.5H2.5c-.276,0-.5,.224-.5,.5s.224,.5,.5,.5Zm-1,3H6.5c.276,0,.5-.224,.5-.5s-.224-.5-.5-.5H1.5c-.276,0-.5,.224-.5,.5s.224,.5,.5,.5Zm3.5,2.5c0-.276-.224-.5-.5-.5H.5c-.276,0-.5,.224-.5,.5s.224,.5,.5,.5H4.5c.276,0,.5-.224,.5-.5Z"/>
</svg>
