<?xml version="1.0" encoding="utf-8"?>
<!-- Generator: Adobe Illustrator 27.5.0, SVG Export Plug-In . SVG Version: 6.00 Build 0)  -->
<svg version="1.1" id="Layer_1" xmlns="http://www.w3.org/2000/svg" xmlns:xlink="http://www.w3.org/1999/xlink" x="0px" y="0px"
	 viewBox="0 0 2400 1680" style="enable-background:new 0 0 2400 1680;" xml:space="preserve">
<rect style="fill-rule:evenodd;clip-rule:evenodd;fill:#FFFFFF;" width="2400" height="1680"/>
<path style="fill-rule:evenodd;clip-rule:evenodd;fill:none;stroke:#000000;stroke-width:8.3999;stroke-linecap:round;stroke-linejoin:round;stroke-miterlimit:22.9256;" d="
	M2374.08,1176.959c-56.8,4.799-113.599,9.6-190.908-9.076s-175.128-60.826-275.175-76.403
	c-100.049-15.576-202.33-4.577-307.083,30.616c-104.753,35.192-211.982,94.58-283.191,117.4
	c-71.211,22.822-106.405,9.074-147.92-7.698c-41.517-16.77-89.358-36.566-141.597-53.338
	c-52.239-16.772-108.876-30.518-180.911-14.847c-72.035,15.671-159.468,60.763-226.555,100.079
	c-67.086,39.317-113.827,72.861-131.423,101.179c-17.596,28.318-6.05,51.415,20.62,50.039c26.67-1.374,68.462-27.219,101.731-43.717
	c33.267-16.495,58.012-23.644,92.93-19.521c34.917,4.125,80.008,19.523,134.86,12.1c54.85-7.424,119.463-37.669,190.125-62.414
	c70.66-24.745,147.369-43.989,191.222-68.185c43.853-24.195,54.852-53.338,59.251-77.258c4.397-23.921,2.198-42.616-8.524-49.215
	c-10.724-6.599-29.969-1.099-44.541,12.647c-14.572,13.748-24.47,35.742-28.043,51.413c-3.575,15.673-0.826,25.021,10.447,26.12
	c11.272,1.101,31.067-6.048,40.965-26.67c9.898-20.62,9.898-54.712,2.749-88.256c-7.149-33.542-21.444-66.537-15.394-92.106
	c6.048-25.569,32.441-43.717,54.162-45.642c21.721-1.923,38.768,12.372,50.316,32.718c11.546,20.347,17.596,46.74,12.372,64.337
	c-5.226,17.598-21.721,26.395-39.317,16.772c-17.598-9.621-36.293-37.667-32.168-82.757c4.123-45.09,31.067-107.23,56.087-134.174
	c25.02-26.945,48.116-18.695,59.939-1.374c11.821,17.321,12.373,43.715,4.125,62.412c-8.25,18.697-25.296,29.694-40.143,30.793
	c-14.847,1.101-27.494-7.696-35.192-23.919c-7.698-16.222-10.449-39.867-3.301-65.438c7.149-25.569,24.196-53.064,58.564-122.075
	c34.368-69.011,86.058-179.537,116.301-254.049c30.243-74.51,39.042-113.001,41.005-135.674c1.96-22.674-2.915-29.531-11.917-29.55
	c-9.004-0.02-22.136,6.794-29.32,19.845c-7.186,13.052-8.427,32.338-50.012,130.788c-41.587,98.452-123.52,276.064-169.434,378.892
	c-45.917,102.83-55.814,130.875-72.586,171.566c-16.772,40.693-40.416,94.031-59.663,120.976
	c-19.246,26.945-34.093,27.494-66.262,19.244c-32.168-8.248-81.658-25.292-123.175-36.016
	c-41.517-10.722-75.059-15.122-97.329-20.345c-22.27-5.224-33.269-11.274-39.867-20.622c-6.599-9.347-8.799-21.994,4.399-58.562
	c13.197-36.568,41.79-97.055,74.235-167.991c32.443-70.936,68.734-152.318,87.157-192.461c18.42-40.141,18.972-39.04,28.045-27.219
	c9.072,11.823,26.668,34.368,35.742,46.191c9.072,11.823,9.623,12.922,17.043,4.713c7.42-8.209,21.711-25.727,30.234-36.176
	c8.522-10.447,11.279-13.824,13.758-10.29c2.476,3.534,4.676,13.984,7.425,25.805c2.749,11.823,6.05,25.022,9.417,31.362
	c3.367,6.342,6.8,5.826,11.474,2.25c4.674-3.574,10.588-10.206,20.802-26.881c10.214-16.672,24.727-43.383,36.182-60.007
	c11.453-16.622,19.849-23.153,23.874-25.063c4.026-1.91,3.682,0.807,1.027,21.828c-2.656,21.022-7.624,60.349-9.282,79.463
	c-1.66,19.116-0.012,18.015,7.137,18.839c7.149,0.826,19.796,3.575,26.349,5.132c6.552,1.559,7.012,1.925,10.862-1.925
	c3.848-3.848,11.087-11.913,18.831-23.644c7.743-11.729,15.993-27.128,21.193-26.115c5.2,1.013,7.355,18.438,9.275,30.898
	c1.917,12.46,3.601,19.958,15.003-3.493c11.402-23.451,32.521-77.853,57.549-139.803c25.025-61.95,53.958-131.45,70.348-170.05
	c16.39-38.598,20.24-46.297,21.339-53.445c1.099-7.149-0.55-13.746-10.14-17.308c-9.592-3.56-27.122-4.084-67.335-4.791
	c-40.213-0.705-103.107-1.596-134.133-2.04c-31.027-0.442-30.185-0.438-33.618,8.246c-3.433,8.686-11.139,26.054-14.167,33.638
	c-3.03,7.583-1.382,5.382,29.606,6.013c30.986,0.631,91.307,4.095,122.79,4.091c31.483-0.004,34.125-3.474,39.097-9.958
	c4.97-6.483,12.273-15.977,19.726-27.434c7.453-11.457,15.055-24.873-17.947-30.851c-33.004-5.976-106.616-4.511-159.367-3.78
	c-52.753,0.733-84.647,0.733-100.318,4.855c-15.673,4.125-15.122,12.374-34.368,62.688
	c-19.246,50.314-58.289,142.697-82.208,194.386c-23.921,51.69-32.72,62.687-49.001,59.281
	c-16.281-3.406-40.046-21.218-55.442-16.269c-15.398,4.949-22.426,32.659-37.488,50.363c-15.063,17.703-38.16,25.401-57.956,31.175
	c-19.796,5.775-36.291,9.623-45.365,16.223c-9.074,6.599-10.722,15.946-22.27,40.141c-11.548,24.196-32.993,63.236-59.111,103.927
	c-26.121,40.693-56.916,83.036-82.21,110.805c-25.294,27.769-45.09,40.967-57.737,73.685c-12.647,32.718-18.148,84.957-54.988,119.6
	c-36.843,34.643-105.03,51.69-131.698,78.083c-26.67,26.395-11.823,62.139,20.071,72.312c31.894,10.173,80.832-5.226,131.148-18.699
	c50.314-13.471,102.004-25.017,151.186-44.866c49.182-19.848,95.856-47.997,131.033-81.592
	c35.177-33.595,58.858-72.633,68.514-120.422c9.654-47.787,5.288-104.324-3.77-138.09c-9.058-33.766-22.804-44.765-25.553-54.938
	c-2.751-10.173,5.499-19.519,19.796-34.643c14.296-15.122,34.643-36.016,49.856-52.576c15.213-16.56,25.294-28.784,31.444-49.262
	c6.149-20.478,8.365-49.209-1.625-67.569c-9.99-18.358-32.184-26.341-50.431-28.685c-18.247-2.342-32.544,0.959-53.165,11.131
	c-20.622,10.173-47.565,27.219-96.827,42.088c-49.262,14.868-120.843,27.56-195.031,5.504
	c-74.19-22.054-150.991-78.855-238.989-99.254c-88.001-20.4-187.201-4.4-286.4,11.601"/>
</svg>
