<svg xmlns="http://www.w3.org/2000/svg" id="Layer_1" viewBox="0 0 323.85 196.09">
  <defs>
    <style>
      .cls-1{fill:#cf805a}
    </style>
  </defs>
  <path d="M271.42 137.15c9.93 4.51 21.5-5.52 12.53-21.84l-7.13-13.05s-.03-.08-.05-.12l-38.12-69.71c-9.57-20.21-24.76-23.75-37.12-3.26L174 77.53s-.02.03-.02.04c-12.18 27.16-21.89 4.56-31.14-9.69l-25.31-40.43c-1.83-3.06-3.99-5.62-6.3-7.61-.4-.35-.82-.68-1.23-.99-.36-.27-.73-.53-1.1-.79-.05-.03-.1-.07-.15-.11-.43-.28-.85-.54-1.28-.8-4.34-2.53-9.12-3.54-13.89-3.13-.08 0-.14.02-.22.02-.38.04-.77.08-1.16.13-8.61 1.2-18.5 4.31-28.91 18.47L24.45 88.13c-.37.53.3 1.18.81.77 18.17-14.64 50.34-18.03 72.97 18.76l40.02 61.8c5.34 8.18 11.72 11.95 17.94 11.67 6.3-.36 12.36-4.91 16.91-13.3l48.89-90.77c.2-.36.7-.4.95-.07l34.89 46.26c3.69 4.61 8.98 12.28 12.96 13.65.09.03.16.06.25.09l.36.12v.04Zm28.51 44.53c-4.42 0-8.59-1.94-11.44-5.32-2.89-3.42-4.06-7.78-3.3-12.28 1.03-6.09 5.98-11.1 12.03-12.18.9-.16 1.82-.24 2.72-.24 8.3 0 15.06 6.76 15.06 15.06s-6.76 14.96-15.06 14.96Z" class="cls-1"/>
  <path d="M22.39 130c-1.27 0-2.43-.6-3.01-1.57-.39-.65-.31-1.41-.17-1.94 3.08-11.58 15.7-19.99 30-19.99s26.91 8.4 30 19.98c.14.53.23 1.3-.16 1.95-.58.97-1.74 1.57-3.01 1.57H22.39Zm26.82 50.8c-17.13 0-31.07-11.5-31.07-25.64 0-1.46 1.38-2.64 3.07-2.64h56.01c1.69 0 3.07 1.17 3.07 2.6 0 14.16-13.94 25.69-31.07 25.69Z" class="cls-1"/>
</svg>
