<?xml version="1.0" encoding="UTF-8"?>
<svg xmlns="http://www.w3.org/2000/svg" id="Layer_1" data-name="Layer 1" viewBox="0 0 24 24">
  <path d="m9.5,23h-1.626c-1.818,0-3.316-1.364-3.484-3.174l-1.387-14.826h15.995l-.595,6.454c-.025.275.177.519.452.544.016,0,.031.002.046.002.255,0,.474-.194.498-.454l.599-6.5c.001-.016-.005-.03-.005-.046h1.507c.276,0,.5-.224.5-.5s-.224-.5-.5-.5h-5.051c-.252-2.244-2.139-4-4.449-4h-2c-2.31,0-4.197,1.756-4.449,4H.5c-.276,0-.5.224-.5.5s.224.5.5.5h1.507c0,.016-.007.031-.005.047l1.392,14.873c.217,2.326,2.144,4.08,4.48,4.08h1.626c.276,0,.5-.224.5-.5s-.224-.5-.5-.5Zm.5-22h2c1.758,0,3.204,1.308,3.449,3H6.551c.245-1.692,1.691-3,3.449-3Zm13.734,21.91c-.377.683-1.067,1.09-1.847,1.09h-2.387c-.276,0-.5-.224-.5-.5s.224-.5.5-.5h2.387c.41,0,.773-.214.972-.573.198-.359.187-.78-.031-1.128l-1.147-1.826c-.147-.233-.077-.542.157-.689.234-.147.543-.076.689.158l1.147,1.826c.415.659.437,1.461.06,2.143Zm-3.648-5.979l-1.182-1.882c-.205-.325-.556-.52-.94-.52h-.004c-.386,0-.738.199-.941.528l-1.138,1.848c-.146.234-.454.307-.688.163-.235-.145-.308-.453-.164-.688l1.138-1.848c.386-.625,1.054-1,1.789-1.003.747,0,1.405.367,1.795.988l1.182,1.882c.147.233.077.542-.157.689-.083.052-.175.076-.266.076-.167,0-.329-.083-.424-.234Zm-3.085,6.568c0,.276-.224.5-.5.5h-2.387c-.775,0-1.464-.404-1.842-1.081s-.361-1.476.045-2.136l1.139-1.849c.145-.234.453-.308.688-.163s.308.453.164.688l-1.139,1.848c-.214.347-.223.768-.024,1.124.199.355.562.568.969.568h2.387c.276,0,.5.224.5.5Z"/>
</svg>
